<?xml version="1.0" standalone="no"?>
<!DOCTYPE svg PUBLIC "-//W3C//DTD SVG 20010904//EN"
 "http://www.w3.org/TR/2001/REC-SVG-20010904/DTD/svg10.dtd">
<svg version="1.0" xmlns="http://www.w3.org/2000/svg"
 width="800.000000pt" height="800.000000pt" viewBox="0 0 800.000000 800.000000"
 preserveAspectRatio="xMidYMid meet">

<g transform="translate(0.000000,800.000000) scale(0.100000,-0.100000)"
fill="#000000" stroke="none">
<path d="M2090 6815 c-253 -32 -444 -102 -654 -239 -96 -63 -226 -165 -226
-178 0 -12 24 -62 159 -341 l111 -228 51 61 c163 196 445 332 721 347 505 28
984 -301 1357 -931 36 -62 79 -139 94 -172 l28 -59 -47 -85 c-146 -260 -301
-474 -472 -651 -214 -223 -387 -325 -656 -389 -45 -11 -93 -20 -108 -20 -16 0
-28 -4 -28 -9 0 -5 60 -133 134 -285 l135 -276 38 14 c145 52 473 220 568 291
204 152 454 434 663 747 68 101 92 130 92 110 0 -15 139 -232 211 -329 l69
-92 79 34 c150 64 436 189 440 192 2 2 -15 24 -38 50 -100 115 -178 215 -246
318 -75 113 -191 323 -201 362 -7 26 15 65 146 268 241 371 410 551 701 748
205 138 326 174 559 164 591 -25 975 -382 1057 -984 10 -69 22 -123 28 -122 5
0 138 51 295 112 l285 112 3 33 c9 96 -82 403 -170 573 -330 634 -1078 972
-1823 823 -134 -27 -234 -62 -380 -135 -193 -95 -301 -175 -485 -359 -165
-164 -282 -309 -433 -532 -50 -76 -94 -138 -97 -138 -5 0 -51 73 -95 151 -35
63 -141 211 -228 319 -112 140 -313 333 -442 424 -354 250 -766 354 -1195 301z"/>
<path d="M1056 6249 c-25 -28 -66 -78 -91 -112 -25 -34 -50 -67 -55 -74 -6 -7
-10 -15 -10 -18 0 -3 -16 -30 -35 -60 -235 -368 -300 -1002 -154 -1517 78
-279 208 -506 399 -698 254 -254 556 -395 945 -440 101 -11 410 -13 466 -2
l36 7 -71 150 c-39 83 -100 212 -136 288 l-64 137 -72 0 c-99 0 -210 31 -339
95 -136 67 -218 128 -332 249 -90 95 -174 227 -221 346 -118 297 -104 679 36
1024 l40 98 -122 247 c-68 135 -131 265 -141 289 -11 23 -22 42 -26 42 -4 0
-28 -23 -53 -51z"/>
<path d="M7235 5211 c-110 -43 -243 -95 -296 -115 l-96 -37 -6 -92 c-21 -299
-133 -561 -323 -752 -259 -259 -655 -362 -1014 -263 -181 49 -332 128 -507
264 -45 35 -86 64 -91 64 -8 0 -308 -130 -440 -191 -35 -16 -68 -29 -73 -29
-24 0 -2 -34 80 -126 136 -153 320 -309 461 -393 82 -49 261 -132 334 -156
174 -56 273 -70 506 -70 168 0 236 4 310 18 343 67 653 246 912 528 285 310
428 656 469 1139 11 129 3 290 -15 289 -6 0 -101 -35 -211 -78z"/>
<path d="M1823 3220 c-131 -26 -282 -127 -362 -240 -52 -74 -121 -228 -121
-270 0 -6 69 25 154 67 142 71 156 80 172 115 19 43 91 113 130 128 38 15 82
12 115 -7 29 -17 30 -17 145 40 l116 58 -23 25 c-72 77 -198 109 -326 84z"/>
<path d="M6415 3206 c-127 -30 -228 -82 -288 -150 -32 -37 -86 -159 -98 -221
-18 -99 1 -164 73 -240 32 -35 72 -68 88 -75 17 -7 30 -16 30 -21 0 -5 -151
-9 -340 -9 -241 0 -340 3 -340 11 0 6 49 81 108 168 281 405 352 509 352 515
0 3 -62 6 -139 6 l-139 0 -144 -232 c-79 -128 -160 -259 -178 -290 -35 -59
-50 -65 -50 -21 0 14 -28 132 -61 262 -34 130 -64 246 -66 259 -5 22 -8 22
-158 22 l-154 0 19 -62 c30 -105 160 -530 176 -576 8 -23 14 -47 14 -53 0 -6
-106 -8 -292 -7 l-293 3 -18 100 c-16 93 -30 166 -88 478 l-22 117 -159 -2
-160 -3 -187 -345 -187 -345 -289 -3 c-160 -1 -296 0 -304 3 -10 4 4 15 39 33
69 34 170 132 203 198 50 98 57 234 16 315 -53 106 -187 149 -462 149 -114 0
-148 -3 -145 -12 2 -7 25 -55 51 -105 l47 -93 81 0 c94 0 130 -15 150 -62 29
-70 9 -163 -53 -241 l-22 -27 59 -120 60 -120 258 0 c141 0 257 -2 257 -3 0
-2 -23 -46 -51 -98 -159 -293 -219 -406 -219 -413 0 -3 65 -6 144 -6 l144 0
73 148 c41 81 79 150 84 154 6 5 113 7 240 5 l229 -2 22 -142 c13 -79 25 -147
29 -153 4 -6 62 -10 147 -10 l141 0 -6 43 c-5 36 -62 345 -83 445 l-6 32 301
0 301 0 11 -27 c8 -20 8 -47 0 -93 -25 -149 -61 -350 -67 -374 l-6 -26 130 0
c74 0 133 4 137 10 5 9 54 274 70 380 4 25 16 64 27 88 l20 42 467 0 468 0 40
-29 c80 -58 92 -141 29 -204 -60 -60 -97 -72 -226 -72 -102 0 -122 3 -178 27
-34 15 -82 40 -106 56 l-44 30 -24 -126 c-20 -104 -22 -128 -11 -135 76 -46
301 -76 438 -58 275 37 406 137 461 354 19 77 12 237 -10 237 -7 0 -27 18 -45
40 -33 42 -132 105 -242 155 -122 56 -167 98 -176 163 -4 28 1 46 19 72 52 76
121 97 294 88 79 -4 104 -10 156 -36 35 -17 65 -29 67 -26 6 6 50 228 46 232
-2 2 -29 10 -62 18 -83 22 -342 27 -418 10z m-2202 -326 c4 -36 16 -132 27
-215 11 -82 20 -156 20 -162 0 -10 -36 -13 -145 -13 -80 0 -145 2 -145 3 0 2
50 106 110 230 61 124 110 232 110 239 1 36 18 -24 23 -82z m57 -480 c0 -6
-64 -10 -171 -10 -111 0 -168 3 -164 10 4 6 72 10 171 10 103 0 164 -4 164
-10z"/>
<path d="M2550 3183 c0 -9 -8 -58 -39 -233 -11 -63 -31 -182 -45 -265 -14 -82
-28 -160 -31 -172 -5 -22 -10 -23 -112 -23 l-106 0 7 43 c21 139 28 233 22
317 -6 102 -29 198 -50 206 -7 3 -60 -20 -117 -50 -78 -42 -103 -60 -101 -73
13 -84 13 -200 -2 -298 -10 -60 -19 -118 -22 -127 -5 -16 -23 -18 -200 -18
l-194 0 0 24 c0 30 24 144 44 209 11 38 12 47 2 45 -7 -2 -75 -32 -150 -67
-149 -71 -142 -63 -161 -173 l-6 -38 -94 0 -95 0 0 -40 0 -40 90 0 89 0 0
-102 c1 -160 34 -263 110 -331 54 -48 86 -64 164 -78 90 -17 206 0 295 42 130
62 255 218 318 398 l23 66 116 3 c63 1 115 1 115 -2 0 -2 -14 -75 -30 -163
-17 -87 -39 -200 -49 -251 -9 -51 -15 -95 -12 -97 8 -9 260 -5 265 4 6 9 22
94 62 335 14 83 27 154 30 158 3 4 36 8 73 8 101 0 102 -1 248 -345 l68 -160
84 -3 c46 -2 88 1 92 5 5 5 -33 94 -84 198 -51 105 -129 263 -172 353 l-79
162 -98 0 c-54 0 -98 3 -98 8 0 4 11 72 24 151 l25 144 -70 139 -69 138 -40 0
c-22 0 -40 -3 -40 -7z m-630 -786 c0 -7 -7 -38 -16 -68 -45 -151 -130 -239
-231 -239 -72 0 -114 59 -127 181 -4 37 -4 83 -1 103 l7 36 184 0 c146 0 184
-3 184 -13z"/>
<path d="M1110 1560 l0 -50 1165 0 c800 0 1165 3 1165 10 0 6 -9 29 -20 50
l-20 40 -1145 0 -1145 0 0 -50z"/>
<path d="M3565 1560 l25 -50 1600 0 1600 0 0 50 0 50 -1625 0 -1625 0 25 -50z"/>
</g>
</svg>
